<svg xmlns="http://www.w3.org/2000/svg" viewBox="0 0 122.07 135.41"><defs><style>.cls-1{fill:#fff;}</style></defs><title>ynav2</title><g id="Ebene_2" data-name="Ebene 2"><g id="Ebene_1-2" data-name="Ebene 1"><path class="cls-1" d="M68.65,96.55C64.81,98.34,60.91,100,57,101.72c-5.21,2.3-10.13,5.11-16,5.14-3.69,0-6.35-.54-8.83-3.43A45.67,45.67,0,0,1,27.41,96a71,71,0,0,1-6.69-16.61c-1.73-6.7-.74-12.1.42-18.71,1-5.58.61-11.12.44-16.75-.37-12.62,3.78-25.4,17.28-29.07C42,14,40.64,9.15,37.53,10,25.15,13.36,17.8,24.27,16.7,36.66,16,44.8,17.54,52.81,16,60.92c-1.44,7.62-1.82,13.92.37,21.49a76.61,76.61,0,0,0,8.42,19c3.05,4.92,5.85,9.42,12,10.18,12.06,1.5,23.8-5.75,34.42-10.7,2.91-1.36.37-5.68-2.53-4.32Z"/><path class="cls-1" d="M36.93,14.56c9.5,5.78,12.71,16.54,15.27,26.71,2.67,10.63,5.58,21.17,9.07,31.57,3.35,10,7.89,20.13,5.37,30.84-2.21,9.39-7.43,17.74-8.78,27.38-.44,3.14,4.37,4.51,4.82,1.33,1.49-10.7,7.82-19.92,9.39-30.58,1.65-11.2-3.16-21.74-6.59-32.14C61.65,58.07,59,46.24,55.59,34.52c-2.78-9.69-7.26-18.88-16.14-24.27-2.75-1.68-5.27,2.64-2.52,4.31Z"/><path class="cls-1" d="M35.28,4.79c-9.86.72-17,8.48-21.21,16.87-5.5,11-5.17,23.43-6.31,35.41C6.44,70.86,3.7,84.3,1.42,97.94c-2,12-2.45,23.87,2.48,35.18,1.29,2.94,5.59.4,4.32-2.52-4.75-10.89-3.54-22.83-1.48-34.19,1.91-10.49,3.91-20.93,5.18-31.53s.9-22.08,3.53-32.6c2.32-9.32,9-21.7,19.83-22.49,3.19-.24,3.22-5.24,0-5Z"/><path class="cls-1" d="M43.79,50.88A24.07,24.07,0,0,1,54.2,49.6c3.2.3,3.18-4.7,0-5a27.54,27.54,0,0,0-11.74,1.46c-3,1.06-1.72,5.89,1.33,4.82Z"/><path class="cls-1" d="M28.19,45.35A18.5,18.5,0,0,0,22,44.3c-3.22,0-3.22,5,0,5a14.26,14.26,0,0,1,4.88.87,2.52,2.52,0,0,0,3.07-1.75,2.55,2.55,0,0,0-1.74-3.07Z"/><path class="cls-1" d="M36.54,9.45c11.63-6.9,27-5,39.09.27,13.7,6,21.18,18.34,24.91,32.33,3.9,14.65,5.44,29.83,9.23,44.55,1.87,7.26,3.84,14.51,5.35,21.87s4.12,16.73-.74,23.34c-1.91,2.6,2.42,5.09,4.31,2.53,4.3-5.85,3.65-13,2.6-19.83-1.44-9.27-3.88-18.35-6.23-27.42s-4.4-18.15-6-27.39c-1.44-8.51-2.79-17.09-5.68-25.26C98.41,20.29,88.91,9.21,74.62,4,61.49-.85,46.35-2.19,34,5.13c-2.77,1.64-.25,6,2.52,4.32Z"/></g></g></svg>