<svg xmlns="http://www.w3.org/2000/svg" viewBox="0 0 122.2 136.82"><defs><style>.cls-1{fill:#fff;}</style></defs><title>better</title><g id="Ebene_2" data-name="Ebene 2"><g id="Ebene_1-2" data-name="Ebene 1"><path class="cls-1" d="M67.43,98.52c-5.72,2.66-11.52,5.22-17.31,7.74-4,1.73-10.33,3.21-14.66,1.47-3.82-1.53-6.61-7.67-8.47-11.09-4.07-7.46-8-16.9-7.48-25.55.23-3.83,1.49-7.53,2-11.33a78.45,78.45,0,0,0,.16-12.64c-.33-8.5.11-17.69,6.25-24.27C29.83,20.76,35,16,38.24,16.78c3.38.78,6.76,6.77,8.26,9.5,4.33,7.85,5.75,17.1,8,25.67,2.33,8.75,5,17.41,8,26C65.89,87.73,69,97.1,66,107.46c-2.48,8.47-6.92,16.17-8.15,25-.44,3.15,4.37,4.51,4.82,1.33,1.39-9.91,6.93-18.46,9-28.17,2.13-10.13-1-19.53-4.3-29-3.8-11-7.06-22.14-9.88-33.42-2.33-9.34-4.86-19-11.51-26.29-1.86-2-5.14-5.47-8.1-5.52-3.75-.07-8.45,3.5-11.15,5.78C20.2,22.59,17.18,30.67,16.62,39c-.35,5.13.3,10.25.22,15.39-.08,5.44-1.78,10.54-2.25,15.92-.84,9.59,3.28,19.81,7.69,28.14,2.17,4.11,4.81,9.34,8.5,12.33,3.41,2.76,8.81,2.78,12.95,2.4,4.8-.44,8.89-2.61,13.21-4.55s8.72-3.76,13-5.77c2.91-1.35.38-5.67-2.53-4.31Z"/><path class="cls-1" d="M43.77,52.29a29.78,29.78,0,0,1,12.39-1.52c3.2.29,3.18-4.71,0-5a33.46,33.46,0,0,0-13.72,1.7c-3,1.05-1.72,5.89,1.33,4.82Z"/><path class="cls-1" d="M28.17,46.76a29.08,29.08,0,0,0-9-1.53c-3.22,0-3.22,5,0,5a24.81,24.81,0,0,1,7.68,1.35c3.05,1.06,4.35-3.77,1.33-4.82Z"/><path class="cls-1" d="M118.67,135.75c6.36-8.64,2.6-21.37.47-30.87-2.74-12.2-6.45-24.17-8.78-36.46s-4-24.66-7.82-36.6c-2.88-8.89-8.12-16.14-15-22.41C81.09,3.53,73,1.9,64.55.72A59.09,59.09,0,0,0,51.2.17c-5.73.5-10.63,2.61-16.05,4.19-7.56,2.21-14.78,5.77-19.1,12.75-6,9.75-6.84,22.42-7.66,33.54C7.26,66.13,4.67,81.25,1.9,96.49c-2.33,12.87-3.37,25.77,2,38,1.29,2.94,5.6.4,4.32-2.52-4.88-11.2-3.46-23.48-1.3-35.14,1.95-10.49,3.87-21,5.11-31.55,2.14-18.36-.67-46.1,19.82-54.85a33.87,33.87,0,0,1,5-1.27c2.34-.64,4.53-1.94,6.89-2.61A44.56,44.56,0,0,1,58.85,5.11c7.86.5,17.36,1.62,23.73,6.62C98.24,24,101.16,44,104.27,62.44c2,11.73,4.91,23.14,7.84,34.66,1.54,6.05,3,12.14,4,18.3s2.08,12.56-1.79,17.82c-1.91,2.6,2.43,5.09,4.31,2.53Z"/></g></g></svg>