<svg xmlns="http://www.w3.org/2000/svg" viewBox="0 0 37.72 37.71">
<path class="cls-1" d="M13.18,14.17a5.35,5.35,0,0,0-2,3.25A4.7,4.7,0,0,0,12,21.14c1.27,1.62,3.48,2.13,5.51,2.45a16.16,16.16,0,0,0,5.63.15,6.3,6.3,0,0,0,4.5-3.11,7.08,7.08,0,0,0,.64-2.72,6,6,0,0,0-.64-3.54,6,6,0,0,0-3-2.31,9.47,9.47,0,0,0-4.12-.83A14,14,0,0,0,17.1,12a12.2,12.2,0,0,0-2.8,1.14,4.12,4.12,0,0,0-1.88,2.29"/><path class="cls-1" d="M11.85,12.84c-4,3.66-3.21,9.61,1.9,11.72,4.48,1.85,11.89,2.28,15-2.2a8,8,0,0,0-3.17-11.92c-4.58-2.08-12.49-1-14.79,4-1,2.18,2.24,4.08,3.24,1.89,2.33-5.09,14.72-4.1,12.13,2.89-1.21,3.26-5.42,3-8.16,2.52-3.26-.53-7.16-3-3.5-6.29,1.79-1.63-.87-4.27-2.66-2.65Z"/><path class="cls-1" d="M16.06,10.59l-3.2-1.7a1.89,1.89,0,0,0-2.56,2.57,22.1,22.1,0,0,1,1.46,3.07,1.94,1.94,0,0,0,2.31,1.31,1.9,1.9,0,0,0,1.31-2.31,29.08,29.08,0,0,0-1.85-4L11,12.13l3.2,1.7a1.91,1.91,0,0,0,2.56-.68,1.88,1.88,0,0,0-.67-2.56Z"/><path class="cls-1" d="M26.21,13.62l1.4-.7.63-.32.26-.13c.42-.18.33-.19-.29,0l-1.62-.93.06.08-.26-.94c0-.41-.08.23-.08.21a7.63,7.63,0,0,1-.48.89,8.09,8.09,0,0,0-.84,2,1.88,1.88,0,1,0,3.62,1C29,13.3,30.71,11.67,30,9.93c-1.08-2.56-4.11-.33-5.67.45A1.9,1.9,0,0,0,23.64,13a1.92,1.92,0,0,0,2.57.67Z"/><path class="cls-1" d="M7.9,27.47c1.29.38,1.52,1.59,2.37,2.48a5.41,5.41,0,0,0,2.61,1.47c2.27.55,4.47-.43,6.29-1.71s.08-4.64-1.9-3.24c-1.48,1.05-3.35,2.14-4.65.36a6.62,6.62,0,0,0-3.72-3c-2.33-.68-3.32,2.94-1,3.61Z"/><path class="cls-1" d="M23,34.42c.06-1.12.09-2.25.12-3.37a10.6,10.6,0,0,0-.28-3.13,3.1,3.1,0,0,0-1.46-2l-2-.22a7.1,7.1,0,0,0-1.49,4A12,12,0,0,0,18.32,34"/><path class="cls-1" d="M24.82,34.42c.12-2.54.55-5.55-.58-7.93-.88-1.84-2.24-2.36-4.11-2.55-4.91-.52-4.43,7.52-3.61,10.51.63,2.33,4.25,1.34,3.61-1s-.77-4.7.77-6.78l-1.62.93,1,.11a2.43,2.43,0,0,1,.77.08l.19,0c-.48-.06-.6.07-.38.36a8,8,0,0,0,.28,1.24,12.79,12.79,0,0,1,0,1.64c0,1.12-.06,2.25-.12,3.37-.11,2.41,3.64,2.41,3.75,0Z"/><path class="cls-1" d="M3.75,18.48c-.1-7.31,5-14,12.63-14.67,8.28-.74,16.27,3.37,17.38,12.09a27.36,27.36,0,0,1-.55,10c-1.35,5.1-6,7.56-11,8-9.73.76-18-5.82-18.45-15.71-.1-2.41-3.86-2.42-3.75,0C.5,30,10.28,38.58,22.21,37.64S38.58,27.49,37.59,16.39,27.1-.66,16.38.06C6.77.7-.13,9.13,0,18.48c0,2.41,3.79,2.41,3.75,0Z"/>
</svg>