<svg xmlns="http://www.w3.org/2000/svg" viewBox="0 0 31.77 32.59">
<path class="cls-1" d="M7.75,4.89c5.94-1,19-3.27,20,5.06a55.81,55.81,0,0,1-.13,9.41c-.23,4.24.72,8.05-4.53,9-3.91.73-16.74,1.46-18.51-2.57-1.63-3.71-1.88-19.32,3-20.74,2.32-.67,1.33-4.29-1-3.61C2.86,2.56,1.4,5.46.81,9.11A47.69,47.69,0,0,0,.6,25.23c.83,4.42,1.67,6.09,6,6.51,6,.58,13,1.53,19,.1,3.79-.91,5.18-2.8,5.43-6.51.39-5.53,1.31-11.72.23-17.2C29.15-2.6,14.72-.11,6.76,1.27c-2.38.41-1.37,4,1,3.62Z"/><path class="cls-1" d="M25.23,10.47a1.88,1.88,0,0,0,0-3.75,1.88,1.88,0,0,0,0,3.75Z"/><path class="cls-1" d="M18.08,8.61c-4.26-.46-8.86,1.77-10.25,6A8.45,8.45,0,0,0,12.51,25,8.2,8.2,0,0,0,23.67,20.9c1.78-3.79,1.4-9.25-2.7-11.35-2.14-1.09-4,2.14-1.89,3.24,5.16,2.63-.44,12.71-6.15,8.22a4.71,4.71,0,0,1-1.07-6.18c1.32-2.14,3.89-2.72,6.22-2.47s2.38-3.49,0-3.75Z"/>
</svg>