<svg xmlns="http://www.w3.org/2000/svg" viewBox="0 0 56.4 20.75">
    <path fill="#FFFFFF" d="M25.13,20.69c-.62-.19-.74-.38-4.41-6.65-3.49-6-4.78-8-5-7.72-.08.08-.9,2.84-2.18,7.36-.56,2-1.16,4.05-1.34,4.55l-.31.92-.89,0a8,8,0,0,1-2.78-.59c-.12-.12.77-3.7,2.35-9.5,1.83-6.7,2.15-7.47,3.31-8A15.61,15.61,0,0,1,17.26.56h.6l.63,1.1c.34.6,1.88,3.44,3.41,6.32,3.34,6.28,4.09,7.63,4.21,7.63S27.3,13,29.2,7.53a53.2,53.2,0,0,1,2.29-6.15C32.1.17,32.39,0,33.8,0c1.08,0,1.52.12,1.52.43s-5.51,16.72-6,17.86a4.39,4.39,0,0,1-1.46,2.19,8.45,8.45,0,0,1-2.74.21Zm5.64,0c-.6-.16-.64.08.68-4.36C34.16,7.21,36.28.49,36.49.41a15.24,15.24,0,0,1,3,.27C40.52,1,41,1.85,42.69,7c1.48,4.47,3.64,11.27,3.64,11.48s-.45.45-1.57.75-1.71.36-1.91.13a14.15,14.15,0,0,1-.68-1.63c-.67-1.84-.8-2.05-1.21-2a28,28,0,0,0-6.09,2.93,1.91,1.91,0,0,0-.62,1c-.29,1-.29,1-1.87,1a12.06,12.06,0,0,1-1.61,0ZM38,13.18a10.75,10.75,0,0,0,1.74-.9c.26-.24.29-.34.23-.75a21.76,21.76,0,0,0-1.12-3.44c-.48-1-.52-.91-1.64,2.69-1,3.26-1,3-.79,3A14.47,14.47,0,0,0,38,13.18ZM5.89,18a8.34,8.34,0,0,1-2-.93c-.25-.23-.25-.74,0-1.94a3.61,3.61,0,0,0-.11-2.78c-.18-.39-1.13-2-2.1-3.64C.25,6.41-.08,5.78,0,5.63A6.61,6.61,0,0,1,2,4.46l.78-.33L3,4.42c.12.16.79,1.3,1.48,2.52A20.31,20.31,0,0,0,5.85,9.13a24.18,24.18,0,0,0,1-2.87A27.66,27.66,0,0,1,8,3.05c.31-.43.78-.68,2-1.07,1.08-.34,1.37-.37,1.37-.12S8.66,12.66,8,15.05c-.74,2.57-1,3.19-1.18,3.22a3.6,3.6,0,0,1-.9-.24Zm41.57-.3c-1-2.21-5.29-15.66-5.29-16.41,0-.16.95,0,2.46.31,1.9.45,1.62.08,2.7,3.51,1.25,4,2.47,7.66,2.62,7.94s.14.18.35-.23c.12-.24.77-2,1.43-4S53,5.22,53.16,5.06c.43-.58.78-.46,2.58.87.69.52.7.53.63,1a84,84,0,0,1-2.8,8.94c-.14.27-.42.46-1.21.83a28.87,28.87,0,0,1-4.23,1.58c-.41.07-.42.07-.67-.53Z"/>
</svg>