<svg xmlns="http://www.w3.org/2000/svg" viewBox="0 0 34.32 35.08">
<path class="cls-1" d="M25,16.81C22.33,7.28,6.37,9.21,8.36,19.54a7.51,7.51,0,0,0,8.27,5.82c5-.51,7.52-5,7.52-9.6l-3.69.5c1.34,3.43-1,9.81,5.11,9.45,4.25-.25,7.17-4.26,8.25-8C36.94,6.82,24.87-.52,15.13,0,4.06.65-2.51,12.49.91,22.57,5.17,35.12,18.2,36.24,29.47,34.36c2.38-.39,1.37-4-1-3.61-7.12,1.19-15.41,1.79-20.8-4S2.29,11.32,8.73,6.32C14.38,1.94,23.39,4,28.42,8.68c2.63,2.46,3.17,9-.08,11.58q-1.21,2.19-2.64.42c-1.25-.32-1.59-1.06-1-2.22-.34-1.11-.13-2-.59-3.19-.73-1.87-3.69-1.76-3.68.49.27,2.6-.92,4.53-3.55,5.81q-4.47.93-3.59-3.24-1.65-3.46,2.17-4.1c3-.5,5,.7,6,3.58.65,2.32,4.27,1.34,3.61-1Z"/>
</svg>