<svg xmlns="http://www.w3.org/2000/svg" viewBox="0 0 34.62 35.73">
<path class="cls-1" d="M20.33.21C10.6-1.13,1.55,4.06.19,14.36c-1.3,9.77,4.19,20.31,14.62,21.29A18.07,18.07,0,0,0,34.48,20C35.68,10.62,29.24,2.41,20.33.21c-2.34-.58-3.34,3-1,3.61C26,5.46,31,10.94,30.89,18A14.3,14.3,0,0,1,17.28,32C9,32.37,4.12,25.62,3.77,17.83c-.42-9.11,6.72-15.22,15.56-14,2.36.33,3.38-3.29,1-3.61Z"/><path class="cls-1" d="M8.24,14.83a16.51,16.51,0,0,1,18,1.11c2,1.4,3.84-1.85,1.89-3.24A20.19,20.19,0,0,0,6.35,11.6c-2.1,1.18-.21,4.42,1.89,3.23Z"/><path class="cls-1" d="M9.6,20.34c4.61-1.5,10.28-3.36,14.41.25,1.81,1.58,4.47-1.06,2.65-2.65-5.29-4.63-11.94-3.2-18.06-1.21-2.28.74-1.31,4.36,1,3.61Z"/><path class="cls-1" d="M10,25.49c3.77-1.08,8.65-2,12.24.06,2.1,1.2,4-2,1.9-3.24C19.57,19.72,13.77,20.49,9,21.88c-2.32.66-1.34,4.28,1,3.61Z"/>
</svg>