<svg xmlns="http://www.w3.org/2000/svg" viewBox="0 0 221.34 371.33"><defs><style>.cls-1{fill:#fff;}</style></defs><title>ynav</title><g id="Ebene_2" data-name="Ebene 2"><g id="Ebene_1-2" data-name="Ebene 1"><path class="cls-1" d="M7,127.57c-.3-5.74,4-9.95,7.32-14.15,3.08-3.85,6.1-7.78,8.86-11.86,2.33-3.45,4.48-7.19,5.17-11.34.76-4.61-.58-8.86-1.51-13.33-2.23-10.67.47-21.69,4.74-31.53,4.15-9.55,10.91-18,21.31-20.88,3.1-.85,1.78-5.68-1.33-4.83C32,25,22.05,48,21,66.71c-.31,5.58,1,10.54,2,16,1.36,7-1.2,12.13-5.14,17.74-3.55,5.07-7.59,9.75-11.3,14.7-2.83,3.77-4.86,7.67-4.61,12.47.16,3.21,5.16,3.23,5,0Z"/><path class="cls-1" d="M2.07,128.24c1.7,6.15,8.76,5.91,11.67,10.81,2.45,4.15-.62,7.3-.57,11.41,0,2.65,2.14,4.2,2.2,6.55.06,2.54-1.06,4.61-.44,7.23.75,3.23,3.15,5.79,4.07,8.93,1.77,6-2.79,12.45,3.08,17.2,2.48,2,6-1.51,3.54-3.53-3.32-2.69-1.36-7.08-1.27-10.66a15.73,15.73,0,0,0-1.88-7.54c-.63-1.29-1.42-2.5-2-3.81-1-2.17-.52-3.68.07-5.87.67-2.5,1-3.76-.53-6-1-1.47-1.67-1.69-1.59-3.58s1.08-3.56,1.26-5.4a12,12,0,0,0-1-6.15,12.59,12.59,0,0,0-4.49-5.31c-2.36-1.6-6.48-2.58-7.32-5.61s-5.69-1.78-4.82,1.33Z"/><path class="cls-1" d="M21.44,188.82c2.66,6.54,8.51,8.57,15.17,9.19,8.26.76,15.94.18,23.7-2.89,16.91-6.68,33.17-15.62,49.57-23.47,2.9-1.39.36-5.7-2.53-4.32L68.47,186c-6.71,3.22-13.55,6.72-21.1,7.33-6.15.49-18.3,1.1-21.11-5.79-1.19-2.94-6-1.66-4.82,1.33Z"/><path class="cls-1" d="M64.38,192.56c1.18,12.28,3.43,24.23,8.42,35.58,1.3,2.94,5.6.39,4.32-2.53-4.62-10.48-6.65-21.71-7.74-33.05-.31-3.17-5.31-3.2-5,0Z"/><path class="cls-1" d="M52.12,23.69c6.75,8.9,15.39,15.72,23.68,23.09C85.06,55,92.6,64.26,97.51,75.72c4,9.27,6.92,19.55,14.49,26.68,7.06,6.64,16.73,9.07,26.17,7.56,3.17-.51,1.82-5.33-1.33-4.82-11,1.76-21-3.63-26.61-13-5.11-8.52-7.46-18.39-12.41-27C87.46,47,68.77,37.42,56.44,21.17c-1.92-2.53-6.26,0-4.32,2.52Z"/><path class="cls-1" d="M40.27,81.59C41,82.75,51.15,81.68,53,82c4.59.74,8.32,3.27,12,5.91l2.52-4.32a51.07,51.07,0,0,0-29-3.59c-3.16.52-1.82,5.34,1.33,4.82A44.91,44.91,0,0,1,65,87.89a2.5,2.5,0,0,0,2.52-4.32c-7.48-5.33-13.78-7-22.9-6.87-2.79,0-7.19-.91-9.12,1.68-1.37,1.85-.74,4,.42,5.73,1.74,2.69,6.07.19,4.31-2.52Z"/><path class="cls-1" d="M122.87,147.1c4.54,3.62,8.52,8.66,14.52,9.79a10.19,10.19,0,0,0,10.81-4.52c1.73-2.72-2.59-5.23-4.32-2.52-4.59,7.2-13.7-3.27-17.47-6.28-2.49-2-6,1.53-3.54,3.53Z"/><path class="cls-1" d="M23.67,190.2C2.1,219.19-7.57,262.32,6.83,296.44c7.62,18.06,21.45,30.66,41.23,33.36a113.13,113.13,0,0,0,16.66.83c3.13,0,7.81.14,9-3.59,1.13-3.4-2.07-6.16-3.77-8.69a51.19,51.19,0,0,1-6.76-15.06c-7-25.84,3.81-51.73,13.88-75.15,1.26-2.93-3.05-5.48-4.32-2.53-7.73,18-15.71,36.49-16.69,56.3a71.35,71.35,0,0,0,3.22,25.72,56.18,56.18,0,0,0,5.09,11.26c.94,1.57,3,3.47,3.58,5.16.46,1.37,1.74.55-.66,1.54-1.31.53-3.89.06-5.26.06-10.45,0-21.31-1-30.54-6.31-7.88-4.57-13.69-11.92-17.84-19.91C5.61,283.81,3.88,265.77,6,248.51a118.5,118.5,0,0,1,22-55.79c1.92-2.58-2.41-5.08-4.32-2.52Z"/><path class="cls-1" d="M138.53,109.52c5.58,6.85,9,13,9.26,22a149.77,149.77,0,0,1-1,23.1c-1.89,15-6.26,29.61-8,44.66s1.11,30.21-.49,45.27a49,49,0,0,1-5,17.63c-3.16,6-8,9.07-12.82,13.51-19.21,17.77-21,48.11-13.46,71.7,1.58,4.95,3.62,10.78,7.25,14.65,4.61,4.92,13.25,5.07,19.46,6.22,5.91,1.09,12.9,3.44,18.91,3,5.41-.43,8.93-6.39,12-10.24,16.58-20.62,28.9-44.27,37.89-69.1a79.87,79.87,0,0,0,3-8.86c.64-2.83.23-5.88.35-8.8a130.72,130.72,0,0,1,3.64-23.76c3.3-14.26,7.47-28.26,9.5-42.79,4.14-29.47,1.88-59.36-3.19-88.57-2.52-14.53-5.75-28.93-9.3-43.24-3.28-13.21-6.19-27.09-13.16-39C179.67,13.35,152.09,2.37,125.88.4c-16.95-1.27-34.1.66-50.83,3.36C64.73,5.43,52.68,8.9,49.3,20.06c-.94,3.09,3.89,4.41,4.82,1.33,3.36-11.08,18.41-12.29,28-13.66C96.59,5.67,111.27,4.3,125.88,5.4,149.56,7.18,174.71,16.78,188,37.54c6.94,10.83,9.81,23.66,12.92,36,3.44,13.67,6.62,27.42,9.21,41.28,5.19,27.87,7.94,56.43,5,84.72-2.73,26.57-13.34,51.62-14.23,78.41-.22,6.56-3.17,12.95-5.53,19s-5,12.15-7.83,18.07A225.88,225.88,0,0,1,169,347.16q-5.16,7.38-11,14.27c-3,3.57-5.19,5.05-10.17,4.25q-5.85-.94-11.69-2c-6.23-1.15-15.87-1.17-19.59-7C112.91,351,111,344,109.72,337.48c-2.73-13.43-2.52-27.64,2.59-40.5A49.63,49.63,0,0,1,122,281.4c3.83-4.09,8.68-6.65,12.15-11.11,7.16-9.19,9.38-21.18,9.65-32.57.19-8-.52-16.08-.62-24.12a129.06,129.06,0,0,1,2.31-24.8c2.66-14.54,6.49-28.88,7.17-43.71.32-7,.74-14.46-.62-21.37s-5.6-12.39-10-17.74c-2-2.5-5.55,1.06-3.53,3.54Z"/></g></g></svg>